<svg t="1593681182554" class="icon" viewBox="0 0 1024 1024" version="1.1" xmlns="http://www.w3.org/2000/svg" p-id="2296" width="200" height="200"><path d="M811.707317 1024h-599.414634C94.907317 1024 0 929.092683 0 811.707317v-599.414634C0 94.907317 94.907317 0 212.292683 0h599.414634C929.092683 0 1024 94.907317 1024 212.292683v599.414634c0 117.385366-94.907317 212.292683-212.292683 212.292683zM212.292683 24.97561C109.892683 24.97561 24.97561 109.892683 24.97561 212.292683v599.414634C24.97561 914.107317 109.892683 999.02439 212.292683 999.02439h599.414634c102.4 0 187.317073-84.917073 187.317073-187.317073v-599.414634C999.02439 109.892683 914.107317 24.97561 811.707317 24.97561h-599.414634z" p-id="2297" fill="#8a8a8a"></path><path d="M32.468293 949.073171l132.370731-79.921951V89.912195h172.331708v382.126829l349.658536-382.126829h234.770732L596.917073 424.585366l342.165854 524.487805h-224.780488l-237.268293-402.107317-139.863414 142.360975V949.073171H227.278049z" p-id="2298" fill="#fff"></path></svg>